<svg xmlns="http://www.w3.org/2000/svg" width="600" height="341.443" viewBox="0 0 600 341.443"><path d="M39.858 62.438l5.47 5.862s76.98-73.855 193.428-37.904c0 0-88.703-46.501-198.898 32.042zm8.597 10.16l6.154 5.764C151.323 5.68 232.211 42.514 232.211 42.514 144.29-2.712 48.455 72.598 48.455 72.598zm205.737-55.87C125.24-34.062 33.02 47.003 33.02 47.003l5.177 6.205c88.215-79.666 215.995-36.48 215.995-36.48zM25.399 263.681c30.48-8.987 31.652-53.925 31.652-53.925V84.712s-3.516 79.325-5.47 124.262c-1.954 44.938-38.686 48.846-38.686 48.846v44.156H25.4v-38.295zm72.683-169.2v207.495h8.206V97.606c56.27-31.26 116.056-10.159 116.056-10.159-60.568-35.56-124.262 7.034-124.262 7.034zM9.769 335.973v-23.446l289.165-5.862H0v34.778h317.69L9.77 335.973z"/><radialGradient id="a" cx="138.127" cy="194.323" r="55.749" fx="107.314" fy="194.687" gradientTransform="matrix(1 -.00102 .00306 3 -.595 -388.505)" gradientUnits="userSpaceOnUse"><stop offset="0" stop-color="#2fb45d"/><stop offset=".508" stop-color="#2595b1"/><stop offset=".773" stop-color="#2187d8"/></radialGradient><path d="M110.19 100.745v63.203h55.875V86.662s-38.28 3.514-55.875 14.083zm0 129.435h55.875v-59.66H110.19v59.66zm0 71.804h55.875V236.75H110.19v65.233z" fill="url(#a)"/><path d="M222.188 117.486c4.532.19 7.865.286 9.999.286.081-.952.266-2.157.553-3.618.287-1.46.555-2.746.8-3.857.247-1.11.586-2.571 1.016-4.38.43-1.81.748-3.126.954-3.952-.247-.38-.76-.57-1.538-.57-.493 0-.781.19-.862.57-.451 2.413-1.056 4.492-1.815 6.237-.76 1.746-1.446 2.873-2.061 3.38-1.355 1.08-3.938 1.62-7.753 1.62h-2.954c-2.667 0-4.061-.318-4.184-.953-.37-2.22-.554-5.014-.554-8.38V67.972c0-3.682.185-6.634.554-8.856.082-.444.655-.889 1.723-1.332 1.066-.444 1.804-.667 2.215-.667.163 0 .246-.444.246-1.334 0-.57-.042-1.047-.123-1.429-.575.065-1.313.144-2.215.239-.902.096-1.744.175-2.523.238-.78.065-1.58.096-2.4.096-1.108 0-2.481-.08-4.123-.238-1.64-.159-2.728-.27-3.26-.335-.164.255-.246.763-.246 1.525 0 .825.082 1.238.246 1.238.532 0 1.323.207 2.369.618 1.045.414 1.63.874 1.753 1.38.287 1.715.43 4.604.43 8.666v35.994c0 5.205-.143 8.189-.43 8.95-.205.571-.82 1.047-1.845 1.429-1.026.38-1.826.57-2.4.57-.123 0-.185.415-.185 1.238 0 .827.062 1.334.185 1.524l7.445-.286c2.79 0 6.45.096 10.983.286zm14.108-59.893c.902.445 1.58.921 2.03 1.428.657.7 1.16 1.414 1.509 2.143.347.73.85 2.047 1.507 3.951 4.224 11.744 6.778 18.934 7.661 21.567.881 2.635 1.322 4.397 1.322 5.285v11.902c0 4.128-.164 7.175-.492 9.142-.123.509-.687.985-1.692 1.428-1.006.445-1.754.667-2.246.667-.164 0-.246.413-.246 1.238 0 .634.082 1.078.246 1.332 4.717-.316 7.138-.476 7.26-.476.493 0 2.79.16 6.893.476a6.42 6.42 0 0 0 .122-1.332c0-.825-.082-1.238-.245-1.238-.37 0-1.068-.238-2.093-.714-1.026-.476-1.579-.936-1.662-1.381-.328-1.967-.492-4.918-.492-8.856V89.68c0-.887 1.488-5.141 4.461-12.758 2.974-7.619 5.24-13.298 6.8-17.046.41-.823 1.23-1.523 2.462-2.093 1.23-.573 2.09-.858 2.583-.858.164 0 .247-.382.247-1.143 0-.57-.042-1.047-.123-1.429-.37 0-1.232.097-2.585.287-1.354.19-2.667.286-3.938.286-.288 0-2.707-.191-7.26-.573-.164.255-.247.747-.247 1.476 0 .732.083 1.096.247 1.096 1.189 0 2.193.349 3.015 1.047.82.7 1.23 1.397 1.23 2.095 0 2.223-2.79 9.872-8.368 22.949-.205.445-.41.508-.615.19l-6.892-20.187c-.451-1.205-.676-2.158-.676-2.857 0-1.078.44-1.887 1.322-2.428.881-.538 1.67-.81 2.369-.81.123 0 .195-.363.216-1.095.02-.729-.01-1.221-.093-1.476-4.922.382-7.63.573-8.122.573-1.149 0-2.503-.08-4.06-.238-1.56-.159-2.668-.27-3.323-.335-.165.255-.247.763-.247 1.525 0 .7.082 1.047.247 1.047.41 0 1.066.223 1.968.667zm55.86 60.369c6.809 0 11.712-1.395 14.705-4.19.243-.19.657-2.364 1.23-6.522.574-4.157.864-6.585.864-7.284l-.308-.286a4.814 4.814 0 0 0-.834-.381c-.349-.126-.644-.191-.893-.191-.124 0-.296.525-.52 1.572s-.556 2.35-.988 3.904c-.426 1.555-.929 2.81-1.503 3.762-2.218 3.682-5.358 5.521-9.416 5.521-3.407 0-6.347-1.41-8.831-4.236-2.484-2.825-4.297-6.396-5.445-10.712-1.15-4.317-1.722-9.047-1.722-14.189 0-6.919 1.415-13.123 4.245-18.615 2.833-5.49 6.252-8.237 10.274-8.237 1.929 0 3.662.365 5.2 1.094 1.537.731 2.726 1.589 3.572 2.572.84.985 1.556 2.159 2.153 3.524.592 1.365.982 2.475 1.165 3.331.19.858.343 1.7.462 2.525.124.317.39.476.804.476.858 0 1.29-.476 1.29-1.429 0-.634.04-5.205.124-13.712-5.128-1.585-10.115-2.38-14.953-2.38-5.66 0-10.44 3.223-14.336 9.664-3.898 6.444-5.846 14.174-5.846 23.187 0 8.507 1.897 15.84 5.692 21.996 3.796 6.158 8.398 9.236 13.816 9.236zm19.46-59.798c1.089.445 1.695.92 1.816 1.428.287 1.714.432 4.444.432 8.19v35.993c0 5.205-.145 8.189-.432 8.95-.204.571-.83 1.08-1.875 1.524-1.047.445-1.836.667-2.368.667-.125 0-.187.412-.187 1.237s.062 1.333.187 1.523l7.443-.285c2.872 0 6.563.062 11.076.19 4.513.126 7.814.191 9.907.191.08-.952.267-2.157.554-3.618.286-1.46.553-2.746.798-3.857a321.2 321.2 0 0 1 1.017-4.38c.43-1.81.749-3.126.953-3.952-.246-.38-.76-.57-1.538-.57-.491 0-.781.19-.86.57-.453 2.413-1.06 4.492-1.817 6.237-.76 1.746-1.446 2.873-2.061 3.38-1.355 1.08-3.94 1.62-7.751 1.62h-2.955c-2.668 0-4.06-.318-4.185-.953-.37-1.65-.553-4.538-.553-8.665v-14.76c0-.57 1.476-.857 4.43-.857 3.816 0 5.99.255 6.522.763.245.255.42.46.523.618.1.16.257.667.461 1.523.205.858.453 2.143.74 3.857.121.509.45.762.985.762.49 0 .819-.126.984-.38V77.112c-.207-.316-.556-.475-1.046-.475-.577 0-.885.222-.923.666-.246 1.46-.39 2.366-.432 2.713-.041.35-.195.905-.461 1.667-.267.763-.482 1.175-.645 1.237-.166.065-.535.224-1.11.477-.573.255-1.117.381-1.629.381h-5.755c-1.762 0-2.644-.19-2.644-.57V67.971c0-3.81.1-6.475.308-7.998.08-.826 1.887-1.24 5.415-1.24h4.123c1.925 0 3.445.494 4.551 1.478 1.11.984 1.97 3.222 2.585 6.712.041.445.328.666.86.666.533 0 .902-.158 1.11-.476-.083-.761-.361-2.65-.832-5.665-.473-3.015-.79-5.443-.952-7.284-2.298 0-5.722.127-10.277.38-4.554.255-7.751.382-9.6.382-2.747 0-5.187-.064-7.32-.191-.165.254-.248.794-.248 1.62 0 .76.083 1.14.249 1.14.532 0 1.342.224 2.428.668zm31.982 0c1.089.445 1.695.92 1.816 1.428.287 1.714.432 4.444.432 8.19v35.993c0 5.205-.145 8.189-.432 8.95-.204.571-.83 1.08-1.875 1.524-1.047.445-1.836.667-2.369.667-.124 0-.186.412-.186 1.237s.062 1.333.186 1.523l7.444-.285c2.872 0 6.563.062 11.076.19 4.513.126 7.813.191 9.907.191.08-.952.266-2.157.553-3.618.287-1.46.553-2.746.799-3.857a321.2 321.2 0 0 1 1.017-4.38c.429-1.81.748-3.126.952-3.952-.245-.38-.76-.57-1.537-.57-.491 0-.781.19-.861.57-.452 2.413-1.059 4.492-1.816 6.237-.76 1.746-1.446 2.873-2.061 3.38-1.355 1.08-3.94 1.62-7.752 1.62h-2.954c-2.668 0-4.06-.318-4.185-.953-.37-1.65-.553-4.538-.553-8.665v-14.76c0-.57 1.476-.857 4.43-.857 3.815 0 5.99.255 6.521.763.246.255.42.46.524.618.1.16.257.667.461 1.523.204.858.453 2.143.74 3.857.12.509.45.762.984.762.491 0 .82-.126.985-.38V77.112c-.207-.316-.556-.475-1.047-.475-.576 0-.884.222-.922.666-.246 1.46-.39 2.366-.432 2.713-.042.35-.195.905-.462 1.667-.266.763-.482 1.175-.644 1.237-.166.065-.536.224-1.11.477-.573.255-1.117.381-1.629.381h-5.755c-1.763 0-2.644-.19-2.644-.57V67.971c0-3.81.1-6.475.308-7.998.08-.826 1.886-1.24 5.415-1.24h4.122c1.926 0 3.446.494 4.552 1.478 1.109.984 1.97 3.222 2.585 6.712.041.445.328.666.86.666.533 0 .902-.158 1.11-.476-.083-.761-.361-2.65-.832-5.665-.473-3.015-.79-5.443-.952-7.284-2.298 0-5.723.127-10.277.38-4.555.255-7.752.382-9.6.382-2.747 0-5.187-.064-7.32-.191-.165.254-.248.794-.248 1.62 0 .76.083 1.14.248 1.14.533 0 1.343.224 2.428.668zM214.473 167.432l.284-.066c.19-.068.43-.142.726-.22a24.962 24.962 0 0 1 2.065-.457c.389-.068.74-.113 1.055-.136.126 0 .19-.17.19-.508 0-.248-.033-.383-.095-.406l-.284-.034c-.19 0-.384-.01-.582-.033a1.81 1.81 0 0 1-.585-.17c-.189-.09-.304-.214-.346-.373-.127-.631-.189-1.489-.189-2.571v-15.23c0-1.24.115-2.222.346-2.944a.97.97 0 0 0-.157-.354c-.084-.125-.168-.187-.252-.187h-.063l-.127.1a4.877 4.877 0 0 1-.471.255 9.33 9.33 0 0 1-.774.322 9.363 9.363 0 0 1-1.26.338 17.11 17.11 0 0 1-1.749.27c-.127 0-.19.182-.19.543 0 .248.063.371.19.371h.282c.968 0 1.503.182 1.61.543.125.676.189 1.399.189 2.165v3.655c0 .407-.074.61-.222.61-.673-.384-1.461-.576-2.363-.576-1.809 0-3.432.83-4.871 2.487-1.439 1.66-2.16 3.582-2.16 5.77 0 1.85.59 3.441 1.767 4.772 1.175 1.332 2.636 1.998 4.381 1.998 1.05 0 2.163-.35 3.34-1.05.085-.044.128 0 .128.136v.405c0 .385.062.575.187.575zm-.788-2.25c-.4.35-.955.525-1.67.525-1.45 0-2.584-.604-3.403-1.81-.821-1.207-1.23-2.635-1.23-4.281 0-1.557.347-2.922 1.04-4.096.694-1.173 1.65-1.76 2.868-1.76 1.051 0 1.813.209 2.286.627.473.417.71.862.71 1.337v8.054c0 .587-.202 1.055-.6 1.404zm15.692-5.804c.357 0 .6-.05.725-.153.126-.1.19-.377.19-.828 0-.631-.09-1.27-.268-1.912a7.21 7.21 0 0 0-.852-1.895c-.389-.621-.95-1.129-1.686-1.523-.736-.395-1.587-.593-2.554-.593-1.786 0-3.272.689-4.46 2.065-1.187 1.376-1.78 3.25-1.78 5.618 0 2.03.624 3.752 1.875 5.16 1.25 1.411 2.748 2.115 4.493 2.115a4.98 4.98 0 0 0 2.678-.761c.82-.507 1.44-1.077 1.86-1.708.125-.226.189-.429.189-.61 0-.292-.064-.44-.19-.44l-.22.17a5.72 5.72 0 0 1-1.245.728c-.284.124-.625.23-1.024.32-.4.09-.82.137-1.26.137-1.515 0-2.67-.6-3.468-1.794a6.916 6.916 0 0 1-1.198-3.926c0-.113.083-.17.252-.17h7.943zm-7.265-4.145c.577-1.004 1.413-1.507 2.505-1.507.947 0 1.702.469 2.27 1.405.568.936.85 1.765.85 2.487 0 .226-.051.339-.156.339h-6.147c-.126 0-.19-.079-.19-.237 0-.654.29-1.483.868-2.487zm12.712 11.624a6.1 6.1 0 0 0 .315.152c.168.08.304.142.41.187.104.046.252.096.44.152.19.056.405.096.646.118.242.023.52.034.835.034 1.787 0 3.384-.823 4.792-2.47 1.407-1.646 2.113-3.554 2.113-5.719 0-1.647-.568-3.198-1.702-4.653-1.136-1.455-2.712-2.184-4.73-2.184-.483 0-1.066.142-1.749.424-.683.282-1.17.535-1.465.762v-.205c0-.022.01-.122.031-.304.02-.18.031-.333.031-.457 0-.123-.031-.186-.093-.186a.809.809 0 0 1-.158.034c-.673.226-2.124.519-4.35.88-.126.023-.19.304-.19.845 0 .046.1.068.3.068.2 0 .451.052.756.153.304.102.563.288.773.559.294.338.44.947.44 1.827v13.977c0 .924-.073 1.714-.22 2.37-.042.156-.31.308-.804.456-.494.146-.866.22-1.118.22-.084 0-.127.14-.127.423 0 .281.043.468.127.558 2.163-.113 3.31-.169 3.435-.169.147 0 1.272.056 3.373.169.042-.09.052-.277.031-.558-.02-.282-.062-.423-.125-.423-.21 0-.568-.074-1.073-.22-.504-.148-.777-.3-.819-.457-.168-.7-.251-1.703-.251-3.012v-2.91a.72.72 0 0 1 .126-.44zm-.126-10.558c0-.7.208-1.236.63-1.607.42-.373.955-.56 1.607-.56 1.282 0 2.39.548 3.326 1.642.934 1.094 1.402 2.59 1.402 4.484 0 1.489-.367 2.831-1.103 4.028-.735 1.196-1.723 1.793-2.962 1.793a3.434 3.434 0 0 1-1.986-.627c-.611-.417-.914-.93-.914-1.539v-7.614zm20.83 11.201l.283-.068c.169-.066.4-.146.694-.236.294-.09.609-.18.944-.27a12.654 12.654 0 0 1 2.145-.373c.063 0 .12-.073.173-.22.051-.147.078-.254.078-.322 0-.224-.031-.349-.095-.372l-.282-.034c-.212 0-.421-.01-.631-.033-.21-.022-.41-.08-.6-.17-.189-.09-.304-.214-.345-.373-.148-.743-.22-1.601-.22-2.571v-6.768c0-.541.061-1.355.189-2.437.019-.09.019-.23 0-.423-.023-.192-.074-.288-.159-.288a.809.809 0 0 1-.158.034c-.673.226-2.122.519-4.349.88-.127.023-.19.304-.19.845 0 .046.1.068.3.068.2 0 .452.05.757.153.304.102.562.288.772.559.294.338.442.947.442 1.827v6.328c0 .384-.284.841-.852 1.37-.568.531-1.167.796-1.797.796-1.092 0-1.88-.411-2.364-1.235-.484-.823-.725-2.104-.725-3.841v-4.57c0-.585.064-1.42.19-2.503a1.4 1.4 0 0 0 0-.423c-.021-.192-.074-.288-.159-.288a.804.804 0 0 1-.156.034c-.673.226-2.124.519-4.35.88-.126.023-.19.304-.19.845 0 .046.099.068.3.068.2 0 .451.05.756.153.304.102.562.288.773.559.293.338.44.947.44 1.827v4.263c0 .7.053 1.371.159 2.014.104.644.288 1.31.552 1.997a3.63 3.63 0 0 0 1.228 1.659c.556.417 1.225.625 2.001.625 1.366 0 2.743-.8 4.13-2.403l.064.17v1.726c0 .361.083.541.251.541zm7.684-.338c.146 0 1.272.056 3.373.17.041-.114.052-.305.031-.575-.02-.273-.064-.407-.126-.407-.21 0-.567-.073-1.072-.22-.504-.147-.777-.3-.819-.457-.168-.7-.253-1.704-.253-3.012v-6.971c0-.722.053-1.535.158-2.437a1.4 1.4 0 0 0 0-.423c-.02-.192-.073-.288-.158-.288h-.094l-.063.034c-.672.226-2.123.519-4.35.88-.126.023-.19.304-.19.845 0 .046.1.068.301.068.2 0 .451.05.756.153s.562.288.772.559c.294.338.442.947.442 1.827v6.396c0 .925-.074 1.715-.22 2.369-.044.158-.311.31-.805.457-.494.147-.867.22-1.12.22-.084 0-.125.14-.125.423 0 .282.041.469.126.559 2.144-.114 3.288-.17 3.436-.17zm.803-18.8c.305-.326.458-.727.458-1.201 0-.474-.153-.874-.458-1.201s-.677-.491-1.118-.491c-.442 0-.815.164-1.12.49a1.696 1.696 0 0 0-.456 1.202c0 .474.152.875.457 1.202.304.327.677.49 1.12.49.44 0 .812-.163 1.117-.49zm7.006 18.022c-.778 0-1.496-.322-2.159-.964-.66-.643-1.056-1.304-1.181-1.98-.02-.136-.19-.204-.504-.204-.085 0-.21.068-.379.204 0 .45.058 1.06.173 1.828.115.765.237 1.33.362 1.691.274.046.663.135 1.167.27.504.137.94.231 1.309.29.366.054.772.083 1.212.083 1.303 0 2.439-.445 3.406-1.336.965-.892 1.449-2.003 1.449-3.335 0-.337-.068-.67-.204-.998a4.647 4.647 0 0 0-.426-.812c-.148-.214-.385-.457-.71-.727-.325-.271-.572-.463-.74-.576a47.01 47.01 0 0 0-1.608-1.015c-.105-.069-.373-.231-.805-.491-.43-.26-.708-.44-.834-.542-.127-.1-.31-.27-.551-.507a1.846 1.846 0 0 1-.49-.745 2.895 2.895 0 0 1-.125-.896c0-1.331.757-1.996 2.27-1.996.63 0 1.191.282 1.685.845s.793 1.163.9 1.794c.02.158.177.237.471.237.274 0 .41-.057.41-.169a20.927 20.927 0 0 0-.377-3.453c-.274-.044-.763-.128-1.467-.254-.704-.123-1.287-.185-1.75-.185-1.218 0-2.284.383-3.198 1.15s-1.37 1.76-1.37 2.979c0 1.399.818 2.605 2.457 3.621.23.158.588.371 1.072.642.483.272.856.49 1.12.66.261.17.545.384.85.644.304.259.524.553.662.88.136.327.204.682.204 1.066 0 .744-.214 1.315-.646 1.708-.43.395-.982.593-1.655.593zm-52.607 123.482c-.19 0-.384-.009-.582-.032a1.808 1.808 0 0 1-.585-.169c-.189-.092-.304-.216-.346-.373-.127-.632-.189-1.49-.189-2.573v-15.227c0-1.243.115-2.224.346-2.946a.97.97 0 0 0-.157-.355c-.084-.124-.168-.186-.252-.186h-.063l-.127.1a4.572 4.572 0 0 1-.471.255c-.212.103-.47.21-.774.322a9.358 9.358 0 0 1-1.26.337 17.09 17.09 0 0 1-1.749.272c-.127 0-.19.18-.19.541 0 .249.063.373.19.373h.282c.968 0 1.503.18 1.61.541.125.678.189 1.4.189 2.165v3.655c0 .409-.074.61-.222.61-.673-.382-1.461-.574-2.363-.574-1.809 0-3.432.828-4.871 2.487-1.439 1.66-2.16 3.582-2.16 5.77 0 1.849.59 3.44 1.767 4.77 1.175 1.334 2.636 2 4.381 2 1.05 0 2.163-.352 3.34-1.05.085-.044.128 0 .128.136v.405c0 .385.062.574.187.574l.284-.065c.19-.068.43-.142.726-.222.293-.077.614-.157.962-.237.346-.08.714-.15 1.103-.218s.74-.113 1.055-.137c.126 0 .19-.168.19-.508 0-.249-.033-.382-.095-.405l-.284-.036zm-4.128-1.825c0 .586-.202 1.053-.6 1.402-.4.352-.956.527-1.67.527-1.45 0-2.585-.604-3.404-1.81-.821-1.207-1.23-2.635-1.23-4.283 0-1.555.347-2.922 1.04-4.096.694-1.17 1.65-1.76 2.868-1.76 1.051 0 1.813.21 2.286.628.473.417.71.863.71 1.336v8.056zm18.748 1.825c-.211 0-.421-.009-.631-.032-.21-.021-.41-.08-.599-.169-.19-.092-.305-.216-.346-.373-.148-.745-.22-1.603-.22-2.573v-6.766c0-.541.062-1.355.189-2.437.02-.092.02-.23 0-.423-.022-.192-.074-.29-.158-.29a.866.866 0 0 1-.159.036c-.672.224-2.121.517-4.348.878-.128.024-.19.305-.19.846 0 .047.1.068.299.068.2 0 .452.05.757.154.305.1.562.286.772.559.294.337.442.946.442 1.827v6.326c0 .385-.284.843-.852 1.372s-1.166.796-1.796.796c-1.093 0-1.881-.411-2.365-1.236-.483-.822-.724-2.103-.724-3.842v-4.57c0-.585.063-1.419.189-2.501.02-.092.02-.23 0-.423s-.074-.29-.158-.29a.862.862 0 0 1-.157.036c-.673.224-2.123.517-4.35.878-.126.024-.19.305-.19.846 0 .047.1.068.3.068.2 0 .451.05.756.154.305.1.562.286.773.559.293.337.441.946.441 1.827v4.262c0 .7.052 1.372.158 2.014.104.645.289 1.31.552 1.996a3.63 3.63 0 0 0 1.229 1.66c.556.416 1.224.626 2 .626 1.367 0 2.743-.801 4.13-2.404l.064.171v1.725c0 .36.083.54.251.54l.284-.067c.169-.065.4-.145.694-.237.294-.088.61-.18.945-.269.337-.092.7-.168 1.088-.236.39-.068.741-.113 1.056-.137.064 0 .121-.073.173-.218.052-.148.078-.255.078-.323 0-.225-.03-.349-.094-.372l-.283-.036zm23.055-4.803a1.815 1.815 0 0 0-.457-.068c-.063 0-.152.187-.268.556-.115.373-.283.837-.504 1.39-.22.553-.479.997-.772 1.337-1.135 1.307-2.743 1.96-4.823 1.96-1.745 0-3.252-.499-4.524-1.505-1.271-1.002-2.2-2.27-2.789-3.806s-.882-3.215-.882-5.042c0-2.46.724-4.664 2.175-6.616 1.449-1.952 3.204-2.928 5.264-2.928.986 0 1.875.13 2.663.388.788.26 1.398.564 1.828.913.43.352.799.77 1.103 1.254.305.485.504.879.599 1.183.095.305.175.604.237.896.063.116.2.172.41.172.441 0 .662-.172.662-.509 0-.225.02-1.848.063-4.874-2.627-.562-5.181-.845-7.66-.845-2.9 0-5.348 1.144-7.344 3.436-1.997 2.29-2.995 5.037-2.995 8.24 0 3.022.972 5.63 2.916 7.816 1.943 2.189 4.302 3.283 7.076 3.283 3.488 0 6-.494 7.534-1.488.126-.068.336-.84.63-2.318.294-1.48.442-2.34.442-2.588l-.158-.104a2.971 2.971 0 0 0-.426-.133zm7.669-8.36c-1.954 0-3.583.721-4.886 2.164-1.303 1.447-1.953 3.218-1.953 5.315 0 2.076.671 3.853 2.017 5.33 1.344 1.478 2.973 2.217 4.885 2.217s3.526-.739 4.839-2.218c1.313-1.476 1.97-3.253 1.97-5.33 0-2.052-.673-3.811-2.018-5.278-1.345-1.467-2.963-2.2-4.854-2.2zm3.089 12.013c-.714 1.13-1.628 1.694-2.742 1.694-1.198 0-2.243-.662-3.136-1.981-.893-1.32-1.34-2.904-1.34-4.756 0-1.579.352-2.916 1.056-4.01.704-1.094 1.612-1.641 2.727-1.641 1.197 0 2.247.65 3.152 1.946.902 1.298 1.355 2.86 1.355 4.687 0 1.58-.358 2.934-1.072 4.06zm15.905 1.677c-.503-.148-.778-.3-.82-.459-.168-.698-.25-1.703-.25-3.01v-15.432c0-1.243.115-2.224.345-2.946a.97.97 0 0 0-.156-.355c-.086-.124-.169-.186-.255-.186h-.062l-.127.1a4.519 4.519 0 0 1-.47.255c-.213.103-.47.21-.775.322a9.39 9.39 0 0 1-1.259.337 17.09 17.09 0 0 1-1.749.272c-.127 0-.19.18-.19.541 0 .249.063.373.19.373h.283c.967 0 1.502.18 1.607.541.127.678.19 1.4.19 2.165v14.654c0 .926-.075 1.716-.221 2.37-.041.159-.31.31-.803.458a4.98 4.98 0 0 1-.901.193 5.395 5.395 0 0 1-.873-.193c-.505-.148-.778-.3-.821-.459-.167-.698-.252-1.703-.252-3.01v-15.432c0-1.243.116-2.224.346-2.946a.97.97 0 0 0-.156-.355c-.085-.124-.169-.186-.253-.186h-.062l-.127.1a4.572 4.572 0 0 1-.472.255c-.212.103-.469.21-.774.322a9.357 9.357 0 0 1-1.26.337 17.09 17.09 0 0 1-1.749.272c-.127 0-.189.18-.189.541 0 .249.062.373.19.373h.282c.967 0 1.502.18 1.609.541.125.678.189 1.4.189 2.165v14.654c0 .926-.074 1.716-.222 2.37-.041.159-.31.31-.803.458-.494.147-.866.218-1.12.218-.084 0-.125.142-.125.423 0 .284.041.47.126.56 2.165-.113 3.31-.17 3.435-.17.134 0 1.115.05 2.856.142.004.005.003.023.007.027l.258-.013.252.013c.002-.005 0-.02.001-.026 1.804-.093 2.808-.142 2.924-.142.148 0 1.271.056 3.371.168.044-.112.053-.304.033-.573-.021-.273-.062-.409-.127-.409-.21 0-.565-.07-1.071-.218zm5.731-20.83c-.189-.204-.547-.304-1.073-.304-.334 0-.61.062-.82.183-.21.124-.34.24-.393.34s-.08.198-.08.287c0 .565.752 1.473 2.254 2.724 1.502 1.254 2.393 1.878 2.665 1.878.251 0 .378-.145.378-.438 0-.068-.156-.378-.473-.932s-.716-1.2-1.198-1.946a23.96 23.96 0 0 0-1.26-1.792zm5.971 9.29c-.387-.621-.949-1.13-1.685-1.523-.737-.397-1.585-.595-2.553-.595-1.786 0-3.273.69-4.46 2.067-1.188 1.376-1.78 3.248-1.78 5.617 0 2.031.624 3.753 1.875 5.16 1.248 1.411 2.748 2.115 4.493 2.115.964 0 1.857-.252 2.676-.76.822-.509 1.44-1.077 1.86-1.71.128-.224.19-.428.19-.609 0-.293-.062-.44-.19-.44l-.218.171a5.818 5.818 0 0 1-1.245.728c-.284.124-.628.23-1.027.319-.399.092-.819.136-1.26.136-1.514 0-2.667-.597-3.466-1.792a6.91 6.91 0 0 1-1.198-3.928c0-.112.083-.168.252-.168h7.944c.354 0 .597-.05.724-.154.124-.1.19-.376.19-.828a7.093 7.093 0 0 0-1.12-3.806zm-1.59 3.365h-6.146c-.127 0-.19-.077-.19-.236 0-.654.29-1.482.867-2.488.577-1.002 1.414-1.505 2.505-1.505.946 0 1.704.467 2.271 1.405.568.934.85 1.765.85 2.487 0 .225-.051.337-.158.337zm15.724-3.147c.124 0 .19-.156.19-.473 0-.52-.066-.801-.19-.846h-1.828c-.653 0-1.481-.147-2.49-.44-1.011-.293-1.904-.44-2.68-.44-1.513 0-2.791.458-3.83 1.371-1.04.914-1.56 2.035-1.56 3.366 0 .95.269 1.834.804 2.659.535.822 1.118 1.357 1.748 1.606a6.834 6.834 0 0 0-1.591 1.558c-.474.63-.71 1.24-.71 1.825 0 .677.242 1.254.724 1.727.485.473 1.009.757 1.577.846-2.059.994-3.088 2.188-3.088 3.587 0 1.263.595 2.212 1.78 2.842 1.186.633 2.526.938 4.02.914 2.144-.02 3.898-.66 5.264-1.91 1.366-1.254 2.05-2.748 2.05-4.484 0-1.062-.527-1.857-1.577-2.386-1.053-.53-2.88-.82-5.486-.864h-.219c-.4 0-.748-.018-1.04-.05a7.684 7.684 0 0 1-.915-.169c-.316-.08-.559-.216-.724-.408-.169-.19-.255-.444-.255-.76s.154-.677.459-1.082c.304-.409.594-.69.866-.846a10.3 10.3 0 0 0 1.766.133c1.47 0 2.709-.485 3.72-1.455 1.009-.97 1.512-2.065 1.512-3.283 0-.541-.116-1.082-.346-1.624l-.317-.813c0-.065.042-.1.127-.1h2.24zm-9.694 13.655c.053-.033.153-.1.301-.201.145-.104.24-.166.281-.186.045-.024.148-.074.317-.154.168-.077.263-.13.284-.151a.43.43 0 0 1 .189-.068c2.564 0 4.276.163 5.137.49.86.326 1.292.965 1.292 1.911 0 .926-.405 1.751-1.212 2.473-.81.721-1.846 1.082-3.105 1.082a5.647 5.647 0 0 1-3.106-.896c-.934-.6-1.402-1.384-1.402-2.354 0-.157.015-.31.048-.455.032-.148.062-.278.094-.39a1.07 1.07 0 0 1 .172-.338c.086-.112.148-.21.19-.287a.985.985 0 0 1 .253-.272c.125-.1.213-.169.267-.204zm4.761-8.544c-.538.677-1.215 1.014-2.035 1.014-.798 0-1.496-.36-2.096-1.082-.598-.722-.897-1.6-.897-2.638 0-.95.267-1.76.802-2.437.538-.677 1.215-1.017 2.035-1.017.798 0 1.496.36 2.096 1.085.598.722.897 1.6.897 2.638 0 .95-.267 1.76-.802 2.437zm16.068-5.33c-.39-.62-.952-1.13-1.686-1.522-.74-.397-1.59-.595-2.555-.595-1.786 0-3.271.69-4.46 2.067-1.186 1.376-1.78 3.248-1.78 5.617 0 2.031.624 3.753 1.875 5.16 1.248 1.411 2.744 2.115 4.49 2.115.97 0 1.862-.252 2.679-.76.822-.509 1.443-1.077 1.863-1.71.124-.224.19-.428.19-.609 0-.293-.066-.44-.19-.44l-.225.171c-.142.112-.32.23-.515.355a5.874 5.874 0 0 1-.727.373c-.284.124-.627.23-1.023.319a5.654 5.654 0 0 1-1.26.136c-1.514 0-2.674-.597-3.472-1.792a6.929 6.929 0 0 1-1.195-3.928c0-.112.083-.168.254-.168h7.938c.36 0 .603-.05.728-.154.124-.1.189-.376.189-.828a7.095 7.095 0 0 0-1.118-3.806zm-1.591 3.366h-6.146c-.13 0-.189-.077-.189-.236 0-.654.284-1.482.864-2.488.58-1.002 1.413-1.505 2.507-1.505.947 0 1.704.467 2.266 1.405.568.934.852 1.765.852 2.487 0 .225-.054.337-.154.337zm23.083 7.784c-.403 0-.716-.157-.947-.473-.23-.316-.346-.71-.346-1.183v-7.82c0-1.33-.254-2.294-.757-2.892-.506-.597-1.337-.899-2.49-.899-1.366 0-2.712.482-4.034 1.44-1.325.959-1.987 1.923-1.987 2.893.23.429.641.644 1.23.644.86 0 1.292-.396 1.292-1.185 0-.746.21-1.35.63-1.81s.947-.695 1.577-.695c.588 0 1.09.198 1.51.594.42.393.634.952.634 1.674v2.537c0 .273-.095.441-.284.51-.255.111-.695.28-1.325.508-.63.225-1.142.41-1.53.556-.39.148-.857.367-1.4.662-.548.293-.98.58-1.293.86a3.809 3.809 0 0 0-.82 1.086 2.94 2.94 0 0 0-.349 1.402c0 1.106.317 1.937.947 2.487.63.556 1.428.831 2.395.831.42 0 .837-.068 1.245-.204a4.57 4.57 0 0 0 1.074-.505c.302-.205.57-.403.801-.595.231-.19.417-.36.554-.506.136-.147.215-.221.236-.221.169.473.473.925.914 1.354.44.429.902.642 1.387.642.61 0 1.343-.393 2.206-1.183.104-.18.157-.417.157-.71 0-.18-.041-.272-.124-.272-.444.316-.81.473-1.103.473zm-3.688-1.896c0 .385-.263.763-.79 1.136-.526.373-1.07.56-1.638.56-.568 0-1.03-.167-1.387-.492-.358-.328-.536-.795-.536-1.405 0-.52.172-.976.52-1.372.347-.393.705-.677 1.071-.846.367-.168.879-.366 1.53-.591.65-.225 1.061-.385 1.23-.473v3.483zm30.216 1.018l-3.374-5.347a.911.911 0 0 1-.095-.373c0-.092.02-.168.065-.236l3.025-4.233c.441-.585 1.355-.97 2.742-1.15.062 0 .095-.169.095-.506 0-.091-.021-.248-.063-.476-1.85.115-2.806.172-2.868.172-.065 0-1.168-.057-3.31-.172-.065.092-.094.237-.094.44 0 .34.03.521.094.542.042.024.213.041.52.05.303.012.578.06.82.136.24.08.36.222.36.423 0 .16-.073.396-.218.713-.148.313-.31.612-.49.896l-.708 1.115c-.295.464-.517.82-.662 1.068l-2.05-3.42c-.106-.18-.156-.316-.156-.404 0-.385.42-.577 1.26-.577.062 0 .094-.19.094-.574 0-.18-.012-.316-.032-.408-2.165.115-3.268.172-3.31.172-.062 0-1.112-.057-3.152-.172a2.265 2.265 0 0 0-.125.476l.095.506c.358 0 .828.124 1.417.373.588.248.979.52 1.168.813l3.247 5.11a.542.542 0 0 1 .062.201.65.65 0 0 1-.015.104.422.422 0 0 0-.017.1l-3.277 4.706c-.37.55-1.014.954-1.92 1.216.009-.042.033-.106.033-.134 0-.225-.033-.349-.095-.372l-.284-.036c-.21 0-.42-.009-.63-.032-.21-.021-.41-.08-.6-.169-.19-.092-.305-.216-.346-.373-.148-.745-.219-1.603-.219-2.573v-6.766c0-.541.062-1.355.19-2.437.017-.092.017-.23 0-.423-.024-.192-.074-.29-.16-.29a.835.835 0 0 1-.157.036c-.674.224-2.123.517-4.35.878-.128.024-.19.305-.19.846 0 .047.1.068.3.068.2 0 .452.05.756.154.305.1.562.286.772.559.296.337.444.946.444 1.827v6.326c0 .385-.284.843-.852 1.372-.568.53-1.168.796-1.798.796-1.091 0-1.881-.411-2.363-1.236-.485-.822-.725-2.103-.725-3.842v-4.57c0-.585.062-1.419.19-2.501.02-.092.02-.23 0-.423-.021-.192-.074-.29-.16-.29a.836.836 0 0 1-.157.036c-.671.224-2.123.517-4.35.878-.125.024-.19.305-.19.846 0 .047.1.068.302.068.198 0 .45.05.754.154.305.1.562.286.775.559.293.337.44.946.44 1.827v4.262c0 .7.051 1.372.157 2.014.104.645.29 1.31.553 1.996.26.69.672 1.242 1.228 1.66s1.224.626 2.002.626c1.366 0 2.742-.801 4.129-2.404l.065.171v1.725c0 .36.082.54.251.54l.284-.067c.169-.065.4-.145.692-.237.296-.088.61-.18.946-.269.338-.092.698-.168 1.089-.236.09-.016.16-.019.247-.032-.006.065-.017.11-.017.2 0 .136.021.293.063.473 1.996-.112 3.016-.168 3.058-.168.062 0 1.114.056 3.152.168.083-.088.124-.248.124-.473 0-.34-.03-.509-.091-.509h-.16c-1.05-.088-1.576-.337-1.576-.745 0-.177.074-.393.221-.642l2.174-3.486 2.396 4.063a.507.507 0 0 1 .065.201c0 .34-.444.541-1.325.61-.062 0-.095.18-.095.54 0 .069.02.217.062.441 2.272-.112 3.437-.168 3.499-.168.02 0 1.008.056 2.963.168.086-.112.128-.28.128-.508 0-.314-.033-.474-.095-.474-1.198-.088-2.08-.585-2.647-1.487zm28.323-7.616c-.062 0-1.44-.056-4.128-.168-.086.089-.127.275-.127.559 0 .28.041.423.127.423.337 0 .804.068 1.402.2.6.137.94.317 1.026.542.165.476.251 1.446.251 2.913v.237l.033 2.774c0 .269-.074.44-.222.508-.884.494-2.248.743-4.099.743-2.33 0-4.27-1.053-5.814-3.165-1.544-2.108-2.316-4.415-2.316-6.92 0-2.706.704-5.019 2.112-6.938 1.407-1.917 3.161-2.875 5.264-2.875 3.717 0 5.861 1.544 6.43 4.634.061.116.197.172.407.172.444 0 .663-.172.663-.509 0-.225-.041-1.623-.124-4.196-3.49-1.015-5.98-1.523-7.47-1.523-2.902 0-5.35 1.144-7.347 3.436-1.996 2.29-2.993 5.037-2.993 8.24 0 3.022.97 5.63 2.916 7.816 1.943 2.189 4.3 3.283 7.074 3.283.547 0 1.068-.015 1.562-.05.494-.033.925-.068 1.292-.101a9.483 9.483 0 0 0 1.165-.186l.947-.204a7 7 0 0 0 .881-.255c.37-.121.606-.207.71-.251.106-.047.343-.142.71-.29.366-.145.573-.23.615-.251.523-.228.786-.43.786-.61 0-.068-.073-.292-.218-.677a3.27 3.27 0 0 1-.222-1.186c0-.044-.015-.343-.048-.896s-.047-1.065-.047-1.54c0-1.352.107-2.11.317-2.266.189-.112.508-.243.96-.39.453-.148.74-.22.867-.22.083 0 .127-.17.127-.508 0-.18-.023-.337-.065-.473-2.1.112-3.235.168-3.404.168zm11.848-4.805c-.654 0-1.31.266-1.973.795-.66.53-1.18 1.1-1.558 1.71l.189-1.692c.02-.092.02-.23 0-.423s-.074-.29-.157-.29a.898.898 0 0 1-.16.036c-.67.224-2.123.517-4.35.878-.124.024-.19.305-.19.846 0 .047.101.068.303.068.198 0 .45.05.757.154.301.1.562.286.772.559.292.337.44.946.44 1.827v6.394c0 .926-.074 1.716-.222 2.37-.041.159-.31.31-.804.458-.494.147-.867.218-1.118.218-.083 0-.127.142-.127.423 0 .284.044.47.127.56a254.79 254.79 0 0 1 3.437-.17c.168 0 1.3.057 3.404.17.041-.113.053-.305.032-.574-.023-.273-.065-.409-.127-.409-.21 0-.574-.07-1.088-.218-.515-.148-.793-.3-.834-.459-.169-.698-.252-1.703-.252-3.01v-5.078c0-.722.24-1.408.725-2.065.482-.653 1.05-.979 1.7-.979.548 0 .98.19 1.293.574.316.385.662.577 1.04.577.335 0 .619-.18.853-.541.23-.361.346-.938.346-1.728-.4-.653-1.219-.981-2.458-.981zm28.04 13.69c-.506-.148-.778-.3-.82-.459-.168-.698-.251-1.703-.251-3.01v-3.08c0-2.528-.296-4.356-.884-5.482-.589-1.13-1.618-1.692-3.088-1.692-.757 0-1.55.243-2.38.728-.832.485-1.488.996-1.97 1.537-.042.048-.074.068-.095.068-.041 0-.062-.044-.062-.136 0-.269.041-.721.124-1.351.02-.092.02-.23 0-.423-.02-.192-.074-.29-.157-.29a.89.89 0 0 1-.156.036c-.675.224-2.124.517-4.35.878-.128.024-.19.305-.19.846 0 .047.098.068.299.068s.452.05.757.154c.304.1.562.286.772.559.292.337.44.946.44 1.827v6.394c0 .926-.074 1.716-.219 2.37-.044.159-.31.31-.804.458-.437.13-.763.191-1.012.206.042-.037.076-.049.119-.088.106-.18.16-.417.16-.71 0-.18-.045-.272-.128-.272-.44.316-.81.473-1.103.473-.399 0-.715-.157-.946-.473s-.346-.71-.346-1.183v-7.82c0-1.33-.252-2.294-.757-2.892-.503-.597-1.334-.899-2.49-.899-1.367 0-2.71.482-4.034 1.44-1.325.959-1.985 1.923-1.985 2.893.23.429.639.644 1.228.644.86 0 1.292-.396 1.292-1.185 0-.746.21-1.35.63-1.81.42-.462.946-.695 1.576-.695a2.13 2.13 0 0 1 1.514.594c.42.393.63.952.63 1.674v2.537c0 .273-.094.441-.284.51-.251.111-.692.28-1.325.508-.63.225-1.138.41-1.526.556-.39.148-.857.367-1.404.662-.547.293-.976.58-1.293.86a3.864 3.864 0 0 0-.819 1.086c-.23.438-.346.908-.346 1.402 0 1.106.316 1.937.946 2.487.63.556 1.429.831 2.396.831.42 0 .834-.068 1.245-.204a4.547 4.547 0 0 0 1.07-.505c.305-.205.574-.403.805-.595.23-.19.414-.36.55-.506.136-.147.216-.221.237-.221.168.473.473.925.914 1.354.443.429.905.642 1.387.642.526 0 1.167-.353 1.882-.943-.017.07-.028.158-.028.283 0 .284.041.47.124.56 2.165-.113 3.312-.17 3.437-.17.148 0 1.271.057 3.374.17.042-.113.05-.305.03-.574-.021-.273-.062-.409-.124-.409-.21 0-.568-.07-1.074-.218-.503-.148-.778-.3-.82-.459-.168-.698-.25-1.703-.25-3.01v-5.957c0-.429.31-.908.928-1.437.621-.532 1.266-.796 1.94-.796 1.133 0 1.955.382 2.458 1.15.505.767.757 2.201.757 4.298v3.383c0 .926-.074 1.716-.222 2.37-.041.159-.287.31-.74.458-.452.147-.804.218-1.055.218-.086 0-.127.142-.127.423 0 .284.041.47.127.56a665.93 665.93 0 0 1 3.31-.17c.147 0 1.27.057 3.37.17.042-.113.054-.305.033-.574-.02-.273-.062-.409-.127-.409-.21 0-.565-.07-1.07-.218zm-18.686-2.287c0 .385-.263.763-.786 1.136-.527.373-1.074.56-1.642.56-.565 0-1.029-.167-1.387-.492-.358-.328-.535-.795-.535-1.405 0-.52.174-.976.52-1.372.346-.393.704-.677 1.071-.846.37-.168.878-.366 1.529-.591.654-.225 1.062-.385 1.23-.473v3.483zm33.934 1.76c-.19 0-.384-.009-.583-.032a1.8 1.8 0 0 1-.582-.169c-.19-.092-.305-.216-.346-.373-.127-.632-.19-1.49-.19-2.573v-15.227c0-1.243.116-2.224.347-2.946a.97.97 0 0 0-.157-.355c-.086-.124-.169-.186-.255-.186h-.062l-.127.1a4.519 4.519 0 0 1-.47.255c-.213.103-.47.21-.775.322a9.36 9.36 0 0 1-1.26.337c-.535.115-1.118.204-1.748.272-.127 0-.189.18-.189.541 0 .249.062.373.19.373h.28c.967 0 1.503.18 1.61.541.126.678.188 1.4.188 2.165v3.655c0 .409-.073.61-.221.61-.672-.382-1.461-.574-2.363-.574-1.807 0-3.431.828-4.871 2.487-1.438 1.66-2.16 3.582-2.16 5.77 0 1.849.59 3.44 1.766 4.77 1.177 1.334 2.638 2 4.383 2 1.05 0 2.162-.352 3.34-1.05.085-.044.126 0 .126.136v.405c0 .385.063.574.19.574l.284-.065a9.53 9.53 0 0 1 .724-.222c.293-.077.615-.157.961-.237.346-.08.716-.15 1.104-.218.39-.068.742-.113 1.055-.137.13 0 .19-.168.19-.508 0-.249-.03-.382-.095-.405l-.284-.036zm-4.129-1.825c0 .586-.2 1.053-.6 1.402-.4.352-.955.527-1.668.527-1.452 0-2.585-.604-3.404-1.81-.822-1.207-1.23-2.635-1.23-4.283 0-1.555.346-2.922 1.04-4.096.693-1.17 1.648-1.76 2.867-1.76 1.052 0 1.813.21 2.286.628.473.417.71.863.71 1.336v8.056zm14.888-9.188c-.387-.621-.95-1.13-1.685-1.523-.737-.397-1.589-.595-2.553-.595-1.786 0-3.274.69-4.463 2.067-1.185 1.376-1.78 3.248-1.78 5.617 0 2.031.627 3.753 1.878 5.16 1.248 1.411 2.745 2.115 4.49 2.115.967 0 1.86-.252 2.679-.76s1.44-1.077 1.86-1.71c.127-.224.19-.428.19-.609 0-.293-.063-.44-.19-.44l-.222.171c-.145.112-.32.23-.517.355a5.525 5.525 0 0 1-1.75.692c-.4.092-.82.136-1.26.136-1.515 0-2.672-.597-3.47-1.792a6.932 6.932 0 0 1-1.198-3.928c0-.112.086-.168.255-.168h7.94c.358 0 .6-.05.728-.154.124-.1.19-.376.19-.828a7.094 7.094 0 0 0-1.12-3.806zm-1.59 3.365h-6.146c-.128 0-.19-.077-.19-.236 0-.654.287-1.482.867-2.488.577-1.002 1.413-1.505 2.505-1.505.946 0 1.703.467 2.268 1.405.568.934.852 1.765.852 2.487 0 .225-.053.337-.157.337zm11.622 3.165c-.145-.213-.382-.456-.707-.728-.328-.269-.574-.461-.742-.574a47.063 47.063 0 0 0-.867-.559c-.41-.26-.656-.41-.74-.458-.106-.068-.375-.23-.804-.49-.431-.258-.71-.439-.837-.542-.124-.1-.31-.27-.55-.506-.242-.236-.405-.485-.488-.745a2.862 2.862 0 0 1-.127-.896c0-1.331.757-1.997 2.269-1.997.633 0 1.194.281 1.688.846.491.562.793 1.163.896 1.793.021.16.18.236.474.236.272 0 .41-.056.41-.168-.044-1.263-.168-2.414-.378-3.452-.275-.044-.763-.13-1.467-.254-.704-.124-1.286-.186-1.748-.186-1.218 0-2.286.384-3.2 1.15-.913.769-1.372 1.76-1.372 2.978 0 1.399.82 2.606 2.46 3.623.231.157.586.37 1.071.642.482.272.855.49 1.118.66.264.168.547.384.852.644.305.257.526.553.662.878.137.329.205.684.205 1.068 0 .742-.216 1.313-.645 1.706-.432.397-.985.595-1.656.595-.778 0-1.497-.322-2.16-.964-.662-.645-1.055-1.304-1.182-1.982-.021-.136-.19-.204-.503-.204-.086 0-.21.068-.379.204 0 .453.057 1.062.175 1.828.115.766.237 1.33.36 1.692.273.047.663.136 1.169.272.503.136.937.23 1.307.287.367.056.772.085 1.213.085 1.304 0 2.437-.446 3.404-1.336.967-.894 1.452-2.003 1.452-3.336 0-.338-.071-.669-.207-.997a4.47 4.47 0 0 0-.426-.813zm27.341.627c-.23.857-.54 1.597-.928 2.215-.39.62-.74 1.023-1.056 1.203-.695.385-2.017.574-3.972.574h-1.514c-1.366 0-2.08-.112-2.141-.337-.19-.586-.284-1.615-.284-3.082v-5.243c0-.204.757-.305 2.268-.305 1.955 0 3.067.089 3.342.27.127.091.216.165.266.221.054.056.133.237.237.541.106.305.234.76.378 1.37.066.18.231.272.506.272.252 0 .42-.045.503-.136v-6.397c-.104-.113-.284-.169-.535-.169-.293 0-.453.08-.474.237-.124.52-.198.84-.218.964s-.1.322-.237.594c-.139.27-.248.417-.331.438-.086.024-.275.08-.568.172a2.908 2.908 0 0 1-.834.133h-2.949c-.905 0-1.354-.068-1.354-.201v-5.416c0-1.354.05-2.3.157-2.845.041-.292.967-.437 2.774-.437h2.111c.988 0 1.766.174 2.334.523.568.35 1.008 1.145 1.322 2.387.02.157.168.236.443.236.272 0 .462-.056.565-.168-.041-.272-.183-.944-.423-2.014-.242-1.07-.405-1.934-.49-2.59-1.178 0-2.931.046-5.265.135-2.33.092-3.969.136-4.915.136-1.408 0-2.659-.023-3.753-.068-.083.092-.124.284-.124.577 0 .269.041.405.124.405.275 0 .689.08 1.245.237.559.16.87.328.932.508.147.61.218 1.58.218 2.91v12.791c0 1.852-.07 2.91-.218 3.183-.107.204-.426.384-.962.54-.535.16-.94.237-1.215.237-.062 0-.095.148-.095.441s.033.473.095.541l3.815-.1c1.47 0 3.363.02 5.675.068 2.31.044 4.002.068 5.075.068.042-.34.136-.77.281-1.287.148-.52.284-.976.411-1.372.127-.393.299-.914.52-1.556.22-.644.382-1.112.489-1.404-.127-.136-.388-.204-.787-.204-.254 0-.4.068-.444.204zm12.383 2.164l-.222.172c-.147.112-.319.23-.52.355-.198.124-.44.248-.725.373-.284.124-.624.23-1.023.319-.4.092-.82.136-1.26.136-1.473 0-2.623-.597-3.454-1.792-.828-1.198-1.245-2.697-1.245-4.501 0-1.74.352-3.047 1.056-3.928.704-.878 1.487-1.319 2.35-1.319.903 0 1.68.518 2.331 1.556.296.452.536.763.725.931.19.169.464.255.82.255.777 0 1.167-.758 1.167-2.269-.884-1.15-2.481-1.727-4.79-1.727-1.976 0-3.49.763-4.54 2.286-1.05 1.523-1.577 3.321-1.577 5.398 0 2.031.624 3.753 1.875 5.16 1.251 1.411 2.748 2.115 4.493 2.115a4.98 4.98 0 0 0 2.68-.76c.818-.509 1.44-1.077 1.86-1.71.124-.224.189-.428.189-.609 0-.293-.065-.44-.19-.44zm7.086-11.471c-1.955 0-3.584.721-4.885 2.164-1.305 1.447-1.955 3.218-1.955 5.315 0 2.076.671 3.853 2.017 5.33 1.345 1.478 2.975 2.217 4.885 2.217 1.914 0 3.526-.739 4.839-2.218 1.313-1.476 1.97-3.253 1.97-5.33 0-2.052-.672-3.811-2.018-5.278s-2.963-2.2-4.853-2.2zm3.088 12.013c-.713 1.13-1.627 1.694-2.742 1.694-1.197 0-2.241-.662-3.135-1.981-.893-1.32-1.34-2.904-1.34-4.756 0-1.579.353-2.916 1.057-4.01.703-1.094 1.611-1.641 2.726-1.641 1.198 0 2.248.65 3.153 1.946.902 1.298 1.354 2.86 1.354 4.687 0 1.58-.357 2.934-1.073 4.06zm9.609 1.677c-.503-.148-.778-.3-.82-.459-.168-.698-.25-1.703-.25-3.01v-15.432c0-1.243.114-2.224.345-2.946a.969.969 0 0 0-.157-.355c-.085-.124-.168-.186-.254-.186h-.062l-.127.1a4.52 4.52 0 0 1-.47.255c-.213.103-.47.21-.775.322a9.357 9.357 0 0 1-1.26.337c-.536.115-1.118.204-1.748.272-.127 0-.19.18-.19.541 0 .249.063.373.19.373h.28c.968 0 1.503.18 1.61.541.127.678.189 1.4.189 2.165v14.654c0 .926-.074 1.716-.222 2.37-.041.159-.31.31-.801.458-.494.147-.867.218-1.121.218-.083 0-.124.142-.124.423 0 .284.041.47.124.56 2.165-.113 3.31-.17 3.436-.17.148 0 1.272.057 3.372.17.044-.113.053-.305.032-.574-.02-.273-.062-.409-.127-.409-.21 0-.565-.07-1.07-.218zm11.702-11.54c-.387-.621-.95-1.13-1.685-1.523-.737-.397-1.586-.595-2.553-.595-1.786 0-3.274.69-4.46 2.067-1.188 1.376-1.78 3.248-1.78 5.617 0 2.031.624 3.753 1.875 5.16 1.248 1.411 2.747 2.115 4.492 2.115.965 0 1.858-.252 2.677-.76.822-.509 1.44-1.077 1.86-1.71.127-.224.19-.428.19-.609 0-.293-.063-.44-.19-.44l-.219.171a5.819 5.819 0 0 1-1.245.728c-.284.124-.627.23-1.026.319-.4.092-.82.136-1.26.136-1.514 0-2.667-.597-3.466-1.792a6.91 6.91 0 0 1-1.198-3.928c0-.112.083-.168.252-.168h7.943c.355 0 .598-.05.725-.154.124-.1.19-.376.19-.828a7.094 7.094 0 0 0-1.12-3.806zm-1.59 3.365h-6.146c-.128 0-.19-.077-.19-.236 0-.654.29-1.482.867-2.488.577-1.002 1.414-1.505 2.505-1.505.946 0 1.703.467 2.271 1.405.568.934.849 1.765.849 2.487 0 .225-.05.337-.157.337zm11.625 3.165c-.148-.213-.385-.456-.71-.728-.325-.269-.574-.461-.742-.574a46.987 46.987 0 0 0-.867-.559c-.408-.26-.656-.41-.74-.458-.106-.068-.372-.23-.804-.49-.431-.258-.71-.439-.834-.542-.127-.1-.31-.27-.553-.506-.242-.236-.405-.485-.488-.745a2.863 2.863 0 0 1-.127-.896c0-1.331.757-1.997 2.272-1.997.63 0 1.191.281 1.685.846.494.562.793 1.163.9 1.793.02.16.177.236.47.236.275 0 .41-.056.41-.168a20.909 20.909 0 0 0-.378-3.452c-.272-.044-.763-.13-1.467-.254-.704-.124-1.286-.186-1.748-.186-1.218 0-2.286.384-3.2 1.15-.913.769-1.369 1.76-1.369 2.978 0 1.399.82 2.606 2.458 3.623.23.157.588.37 1.07.642.485.272.858.49 1.121.66.26.168.544.384.85.644.304.257.525.553.662.878.136.329.204.684.204 1.068 0 .742-.213 1.313-.645 1.706-.432.397-.982.595-1.656.595-.778 0-1.497-.322-2.16-.964-.659-.645-1.055-1.304-1.18-1.982-.02-.136-.189-.204-.505-.204-.083 0-.21.068-.379.204 0 .453.06 1.062.175 1.828.115.766.237 1.33.36 1.692.276.047.663.136 1.169.272.503.136.94.23 1.307.287.367.056.772.085 1.213.085 1.304 0 2.44-.446 3.407-1.336.964-.894 1.449-2.003 1.449-3.336a2.58 2.58 0 0 0-.204-.997 4.876 4.876 0 0 0-.426-.813zm-310.13-47.387c.023.292.068.53.157.659.51-.044 1.043-.086 1.6-.13a85.756 85.756 0 0 0 1.51-.13c.45-.045.976-.065 1.578-.065.09 0 1.637.11 4.641.325.061-.216.083-.586.068-1.109-.014-.52-.068-.78-.158-.78-.269 0-.705-.098-1.307-.294-.6-.195-1.037-.446-1.307-.75-.24-.261-.36-.696-.36-1.305 0-.825.255-2.325.766-4.498l1.939-7.172.225-.195c2.253-.216 4.16-.326 5.724-.326 1.112 0 2.253.065 3.426.196.09 0 .18.088.27.26l1.848 7.367.18.719c.09.434.188 1.032.294 1.792a14.8 14.8 0 0 1 .157 1.987c0 .35-.03.698-.09 1.044-.09.35-.405.63-.946.849-.542.216-.991.325-1.352.325-.121 0-.188.272-.203.814-.016.544.037.902.157 1.076 3.456-.216 5.2-.325 5.229-.325.3 0 1.953.11 4.958.325.06-.26.09-.476.09-.65 0-.826-.06-1.24-.18-1.24-.361 0-.917-.207-1.668-.62-.751-.412-1.217-.944-1.398-1.598-.33-1.085-.766-2.65-1.307-4.693l-9.014-34.424-.405-.195a1.2 1.2 0 0 0-.564.13c-.165.088-.316.24-.45.457a8.344 8.344 0 0 0-.34.587c-.09.173-.194.445-.314.815-.121.37-.212.674-.27.913-.061.24-.144.597-.25 1.075-.104.479-.187.826-.246 1.044l-7.843 29.142c-.783 2.913-1.488 4.954-2.12 6.128-.21.39-.601.695-1.17.914-.573.216-1.039.325-1.398.325-.085 0-.129.206-.154.507-.025-.3-.07-.507-.153-.507-.33 0-.886-.142-1.667-.423-.782-.284-1.233-.62-1.353-1.011-.421-1.52-.646-3.522-.676-5.998-.27-16.952-.405-25.774-.405-26.47 0-2.52.179-3.977.54-4.369.27-.303.677-.596 1.217-.88.541-.282.976-.422 1.307-.422h.09c.151 0 .226-.305.226-.914 0-.26-.045-.586-.136-.978-1.502.175-3.185.26-5.048.26-.57 0-1.819-.085-3.741-.26l-1.803 7.824c-1.743 6.477-4.087 14.714-7.031 24.71-.031.174-.107.26-.226.26-.09 0-.151-.044-.18-.13-5.74-20.776-8.715-31.663-8.925-32.664-1.653.218-3.036.326-4.146.326-.602 0-1.158-.021-1.668-.065-.512-.043-1.075-.086-1.69-.13a99.065 99.065 0 0 1-1.69-.13c-.122.174-.18.5-.18.977 0 .609.058.914.18.914.42 0 1.095.14 2.027.423.931.283 1.443.598 1.533.944.12.653.18 1.524.18 2.609 0 .696-.03 2.293-.09 4.792-.06 2.5-.128 5.943-.204 10.334-.075 4.389-.142 8.845-.202 13.364-.06 3-.331 4.89-.81 5.673-.271.39-.82.727-1.646 1.011-.827.281-1.451.423-1.87.423-.152 0-.226.305-.226.911 0 .438.074.763.225.979 3.456-.216 5.213-.325 5.273-.325.48 0 2.224.11 5.229.325.06-.26.09-.565.09-.91 0-.654-.06-.98-.18-.98-.3 0-.91-.162-1.825-.488-.917-.328-1.465-.662-1.646-1.011-.18-.35-.27-.914-.27-1.695 0-.089.045-1.88.136-5.38.09-3.498.195-7.943.315-13.332.12-5.388.21-10.17.27-14.343l10.322 37.944c.18.086.316.13.406.13.542 0 1.096-.935 1.668-2.804l9.42-32.597c.09-.303.165-.457.226-.457.15 0 .293.468.427 1.402.136.936.22 1.751.249 2.445l.541 22.95v3.454c0 1.564-.18 2.502-.541 2.803-.27.22-.714.435-1.33.654-.616.216-1.075.325-1.375.325-.12 0-.18.284-.18.846 0 .524.06.87.18 1.044 3.456-.216 5.259-.325 5.41-.325.57 0 2.358.11 5.363.325.04-.175.047-.424.06-.659zm14.085-33.83l3.651 14.408-.136.328c-1.412.13-2.78.195-4.102.195-.57 0-1.638-.044-3.2-.13-.06 0-.09-.088-.09-.26l3.877-14.54zm26.672 32.6c-.39 0-1.041-.175-1.958-.524-.917-.346-1.45-.802-1.603-1.367-.236-.87-.36-2.762-.36-5.672v-9.585c0-.346.064-.61.183-.78.118-.175.242-.273.36-.297.119-.02.302-.032.539-.032.78 0 1.337.089 1.668.263.331.216.639.5.928.846.284.349.616.87.988 1.564.379.695.704 1.337.994 1.926.284.585.733 1.54 1.348 2.865.622 1.328 1.166 2.47 1.65 3.425 3.094 6.258 6.744 9.387 10.95 9.387.484 0 .886-.065 1.218-.195.088-.26.136-.586.136-.979 0-.346-.048-.65-.136-.91-1.804 0-4.147-2.284-7.033-6.847-1.952-3.085-3.68-6.912-5.182-11.475-.118-.26-.03-.476.273-.65 1.62-1.086 2.904-2.63 3.85-4.63.946-1.998 1.42-3.912 1.42-5.737 0-2.13-.332-3.998-.988-5.607-.663-1.607-1.502-2.847-2.526-3.716-1.023-.87-2.058-1.522-3.111-1.956-1.053-.434-2.088-.653-3.111-.653-.87 0-1.923.045-3.153.13-1.236.09-2.3.132-3.201.132l-5.41-.131c-.12.174-.18.544-.18 1.109 0 .522.06.782.18.782.39 0 .985.152 1.78.457.798.304 1.242.63 1.332.977.208 1.174.315 3.043.315 5.608v24.644c0 3.564-.107 5.604-.315 6.128-.151.39-.602.715-1.353.976-.751.263-1.337.393-1.758.393-.09 0-.135.284-.135.846 0 .654.044 1.044.135 1.174l5.499-.325c.902 0 2.857.11 5.862.325.059-.26.088-.586.088-.979 0-.606-.059-.91-.183-.91zm-3.922-30.838c0-2.13.024-3.706.071-4.728.048-1.02.107-1.672.178-1.956.077-.28.177-.445.296-.488.75-.304 1.804-.457 3.152-.457 4.212 0 6.311 3.021 6.311 9.063 0 2.522-.562 4.541-1.691 6.063-1.124 1.52-2.212 2.283-3.265 2.283h-1.13c-2.614 0-3.922-.633-3.922-1.893v-7.887zm38.713 21.252c0-1.04-.145-2.052-.429-3.031-.286-.976-.585-1.792-.902-2.443-.316-.654-.825-1.402-1.532-2.25s-1.224-1.435-1.555-1.76c-.331-.326-.947-.89-1.849-1.698l-1.576-1.4a61.45 61.45 0 0 1-1.467-1.303 42.802 42.802 0 0 1-1.532-1.434c-.254-.262-.66-.718-1.215-1.37s-.94-1.227-1.15-1.728c-.21-.499-.42-1.13-.63-1.89a8.782 8.782 0 0 1-.317-2.38c0-1.911.367-3.52 1.103-4.824.736-1.305 2.008-1.957 3.81-1.957 1.623 0 2.998.904 4.125 2.706 1.127 1.804 1.766 3.663 1.916 5.575.06.435.45.652 1.171.652.3 0 .45-.152.45-.457 0-3.911-.18-7.02-.541-9.323-.541-.173-1.165-.4-1.87-.685a43.003 43.003 0 0 0-1.623-.62c-.376-.13-.855-.248-1.443-.357a10.312 10.312 0 0 0-1.87-.163c-2.345 0-4.403 1.075-6.174 3.227-1.775 2.151-2.66 4.9-2.66 8.247 0 1.043.098 2.043.294 2.998a9.124 9.124 0 0 0 1.014 2.706c.48.848.902 1.565 1.26 2.152.36.587.94 1.261 1.736 2.021a66.11 66.11 0 0 0 1.712 1.597c.346.305.956.826 1.828 1.565.27.219.766.61 1.488 1.174.718.565 1.215.979 1.487 1.24.27.26.654.662 1.148 1.206.496.541.843 1.053 1.038 1.532.195.476.381 1.085.562 1.824.18.74.272 1.544.272 2.41 0 2.393-.527 4.239-1.58 5.543-1.05 1.304-2.327 1.958-3.83 1.958-3.965 0-6.461-3.132-7.482-9.39-.21-.39-.585-.586-1.127-.586-.482 0-.721.13-.721.39 0 1.565.375 5.023 1.127 10.367.33.088.908.272 1.736.556.825.28 1.508.5 2.05.65.54.151 1.218.305 2.028.456.81.154 1.576.227 2.298.227 2.526 0 4.726-1.117 6.604-3.356 1.878-2.239 2.818-5.096 2.818-8.574zm21.625 11.54c.062-.65.195-1.476.408-2.478.207-.997.405-1.878.586-2.638a311.627 311.627 0 0 1 1.44-5.705c-.18-.26-.556-.39-1.127-.39-.36 0-.57.13-.63.39-.33 1.65-.774 3.076-1.33 4.27s-1.06 1.967-1.509 2.313c-.993.74-2.886 1.11-5.681 1.11h-2.162c-1.955 0-2.975-.217-3.067-.652-.269-1.13-.405-3.108-.405-5.932v-10.106c0-.393 1.082-.588 3.247-.588 2.795 0 4.386.174 4.777.523.18.172.307.314.384.423.074.11.186.456.337 1.044.151.586.331 1.467.541 2.638.09.35.332.524.722.524.36 0 .6-.09.722-.26v-12.324c-.151-.216-.408-.326-.766-.326-.423 0-.648.153-.678.456a51.974 51.974 0 0 0-.316 1.859c-.03.24-.142.62-.337 1.141-.195.52-.355.805-.473.847-.122.045-.39.151-.81.326-.424.174-.82.263-1.196.263h-4.214c-1.292 0-1.94-.133-1.94-.393v-10.431c0-2.609.074-4.434.225-5.477.062-.564 1.384-.848 3.969-.848h3.02c1.41 0 2.522.337 3.335 1.012.81.674 1.44 2.206 1.893 4.596.03.304.24.455.63.455s.662-.108.813-.325c-.062-.522-.266-1.815-.609-3.879-.346-2.064-.58-3.726-.698-4.988-1.686 0-4.194.087-7.53.26-3.336.175-5.678.262-7.03.262-2.013 0-3.803-.043-5.364-.131-.121.174-.18.544-.18 1.109 0 .522.059.782.18.782.39 0 .985.152 1.78.457.796.304 1.24.63 1.331.977.21 1.174.313 3.043.313 5.608v24.644c0 3.564-.103 5.604-.313 6.128-.15.39-.61.74-1.375 1.044-.766.304-1.346.455-1.736.455-.092 0-.136.284-.136.846 0 .568.044.914.136 1.044l5.453-.195c2.103 0 4.81.041 8.116.13 3.303.086 5.722.13 7.254.13zm10.677-40.16c.059-.304.482-.608 1.262-.913.781-.303 1.322-.455 1.624-.455.118 0 .18-.305.18-.914 0-.39-.032-.717-.091-.978-3.005.218-4.75.326-5.23.326-.15 0-1.954-.108-5.408-.326-.121.175-.18.522-.18 1.043 0 .566.059.849.18.849.39 0 .97.14 1.736.423s1.195.598 1.283.944c.21 1.175.317 3.109.317 5.803v25.296c0 2.695-.107 4.629-.317 5.803-.088.349-.517.65-1.283.914-.766.26-1.346.39-1.736.39-.121 0-.18.305-.18.911 0 .48.059.805.18.979 3.454-.216 5.258-.325 5.409-.325.479 0 2.224.11 5.229.325.059-.26.091-.565.091-.91 0-.654-.062-.98-.18-.98-.302 0-.843-.142-1.624-.423-.78-.284-1.203-.576-1.262-.881-.27-1.52-.406-3.543-.406-6.063v-24.774c0-2.522.136-4.541.406-6.065zm26.36 28.948c-.362 0-.572.13-.634.39-.33 1.651-.772 3.077-1.328 4.271s-1.058 1.967-1.51 2.313c-.992.74-2.884 1.11-5.68 1.11h-2.164c-1.952 0-2.975-.217-3.064-.652-.272-1.523-.405-3.433-.405-5.737v-24.58c0-2.52.133-4.54.405-6.064.06-.303.48-.607 1.263-.912.78-.303 1.322-.455 1.62-.455.122 0 .181-.305.181-.914 0-.39-.03-.717-.089-.978-.423.045-.964.098-1.623.163-.663.065-1.278.121-1.849.163-.57.044-1.156.066-1.756.066-.814 0-1.82-.055-3.02-.164-1.204-.108-2-.183-2.39-.228-.12.175-.18.522-.18 1.043 0 .566.06.849.18.849.39 0 .97.14 1.736.423s1.195.598 1.284.944c.21 1.175.316 3.153.316 5.935v24.644c0 3.564-.106 5.604-.316 6.128-.15.39-.6.715-1.352.976-.75.263-1.336.393-1.76.393-.088 0-.132.284-.132.846 0 .565.044.914.133 1.044l5.456-.195c2.04 0 4.723.065 8.044.195 3.322.13 5.762.195 7.326.195.06-.65.195-1.476.405-2.478.21-.997.405-1.878.586-2.638.18-.76.429-1.763.745-3 .314-1.238.547-2.14.698-2.705-.18-.26-.556-.39-1.127-.39zm23.724 3.097c.313-1.24.547-2.141.698-2.706-.18-.26-.556-.39-1.127-.39-.36 0-.57.13-.633.39-.331 1.65-.772 3.076-1.328 4.27s-1.059 1.967-1.511 2.313c-.99.74-2.884 1.11-5.678 1.11h-2.165c-1.952 0-2.975-.217-3.064-.652-.272-1.523-.405-3.433-.405-5.737v-24.58c0-2.52.133-4.54.405-6.064.06-.303.479-.607 1.263-.912.78-.303 1.322-.455 1.62-.455.122 0 .18-.305.18-.914 0-.39-.029-.717-.088-.978-.423.045-.964.098-1.624.163-.662.065-1.277.121-1.848.163-.57.044-1.156.066-1.757.066-.813 0-1.819-.055-3.02-.164-1.203-.108-1.998-.183-2.389-.228-.121.175-.18.522-.18 1.043 0 .566.059.849.18.849.39 0 .97.14 1.736.423s1.195.598 1.284.944c.21 1.175.316 3.153.316 5.935v24.644c0 3.564-.106 5.604-.316 6.128-.151.39-.6.715-1.352.976-.751.263-1.337.393-1.76.393-.088 0-.133.284-.133.846 0 .565.045.914.133 1.044l5.457-.195c2.04 0 4.723.065 8.044.195 3.321.13 5.761.195 7.326.195.059-.65.195-1.476.405-2.478.21-.997.405-1.878.586-2.638.18-.76.428-1.763.745-3zm3.572 4.66c-.15.391-.609.74-1.375 1.045-.766.304-1.345.455-1.736.455-.091 0-.136.284-.136.846 0 .568.045.914.136 1.044l5.454-.195c2.102 0 4.809.041 8.115.13 3.303.086 5.723.13 7.255.13.062-.65.195-1.476.408-2.478.207-.997.405-1.878.585-2.638.18-.76.426-1.763.743-3 .316-1.238.547-2.14.698-2.705-.18-.26-.556-.39-1.127-.39-.361 0-.571.13-.63.39-.331 1.65-.775 3.076-1.331 4.27s-1.059 1.967-1.508 2.313c-.994.74-2.887 1.11-5.682 1.11h-2.161c-1.955 0-2.976-.217-3.067-.652-.27-1.13-.406-3.108-.406-5.932v-10.106c0-.393 1.083-.588 3.248-.588 2.795 0 4.386.174 4.776.523.18.172.308.314.385.423.073.11.186.456.337 1.044.15.586.33 1.467.54 2.638.09.35.332.524.722.524.361 0 .6-.09.722-.26v-12.324c-.15-.216-.408-.326-.766-.326-.423 0-.648.153-.677.456a51.974 51.974 0 0 0-.317 1.859c-.03.24-.142.62-.337 1.141-.195.52-.355.805-.473.847-.121.045-.39.151-.81.326-.423.174-.82.263-1.195.263h-4.214c-1.293 0-1.94-.133-1.94-.393v-10.431c0-2.609.073-4.434.224-5.477.062-.564 1.384-.848 3.97-.848h3.019c1.41 0 2.522.337 3.336 1.012.81.674 1.44 2.206 1.892 4.596.03.304.24.455.63.455s.663-.108.814-.325c-.062-.522-.266-1.815-.61-3.879-.346-2.064-.58-3.726-.697-4.988-1.686 0-4.194.087-7.53.26-3.336.175-5.678.262-7.03.262-2.014 0-3.803-.043-5.365-.131-.121.174-.18.544-.18 1.109 0 .522.059.782.18.782.39 0 .985.152 1.78.457.796.304 1.24.63 1.331.977.21 1.174.314 3.043.314 5.608v24.644c0 3.564-.104 5.604-.314 6.128zM289.12 166.22c-.047.209-.384.408-1.017.602-.63.194-1.097.29-1.393.29-.092 0-.139.186-.139.557 0 .371.047.617.139.735 2.295-.148 3.626-.222 3.993-.222.482 0 1.872.074 4.167.222.023-.059.035-.222.035-.49 0-.535-.047-.802-.139-.802-.228 0-.66-.096-1.29-.29-.632-.194-.97-.393-1.017-.602-.183-.921-.275-2.245-.275-3.969v-17.572c0-1.812.116-3.211.343-4.192-.091-.565-.227-.847-.41-.847h-.072c-.091 0-2.076 1.71-5.956 5.128-.047.06-.068.15-.068.268 0 .15.068.35.207.602.136.253.275.424.411.513l.69-.535c.345-.268.647-.49.913-.669.263-.179.464-.268.603-.268a.28.28 0 0 1 .258.156c.056.105.109.38.153.825.048.446.071 1.1.071 1.962v16.056c0 .98-.07 1.828-.207 2.542zm13.764-11.774c-.275.239-.452.394-.532.468-.08.075-.27.245-.568.513a7.758 7.758 0 0 0-.621.602c-.115.134-.299.35-.55.647a5.054 5.054 0 0 0-.568.78c-.127.223-.28.507-.464.847a4.439 4.439 0 0 0-.397.96 11.47 11.47 0 0 0-.224 1.002 6.32 6.32 0 0 0-.104 1.139c0 2.17.592 3.924 1.775 5.261 1.18 1.338 2.723 2.007 4.631 2.007 1.745 0 3.277-.757 4.596-2.275 1.322-1.515 1.981-3.372 1.981-5.574 0-1.486-.455-2.906-1.36-4.259-.908-1.352-1.958-2.475-3.153-3.367-.16-.118-.16-.207 0-.268 2.573-2.11 3.86-4.295 3.86-6.555 0-2.05-.547-3.694-1.636-4.928-1.091-1.234-2.428-1.85-4.013-1.85-1.514 0-2.848.735-3.995 2.207-1.148 1.472-1.722 3.159-1.722 5.062 0 1.486.361 2.847 1.086 4.08.721 1.235 1.532 2.193 2.428 2.877.115.09.115.178 0 .267l-.45.357zm-.514-8.116c0-1.546.28-2.795.843-3.747.561-.951 1.268-1.427 2.117-1.427.988 0 1.795.557 2.428 1.672.63 1.115.946 2.372.946 3.77 0 2.288-.78 4.101-2.342 5.44a.305.305 0 0 1-.204.088c-.047 0-.115-.028-.207-.088-2.39-1.784-3.581-3.687-3.581-5.708zm1.928 8.74c.02-.03.068-.044.136-.044.047 0 .115.03.207.089.299.208.615.461.946.758.335.298.799.774 1.396 1.427.598.654 1.092 1.405 1.482 2.252s.585 1.703.585 2.565c0 1.515-.334 2.72-1 3.612-.665.892-1.572 1.338-2.72 1.338-.988 0-1.86-.535-2.617-1.606-.757-1.07-1.136-2.468-1.136-4.192 0-1.427.213-2.623.636-3.59.426-.966 1.12-1.835 2.085-2.609zm15.973-15.386c-2.298 0-4.123 1.383-5.477 4.148-1.355 2.765-2.032 6.17-2.032 10.212 0 4.015.683 7.412 2.05 10.192s3.185 4.168 5.459 4.168c2.295 0 4.12-1.381 5.474-4.146 1.355-2.765 2.032-6.17 2.032-10.214 0-4.072-.671-7.484-2.014-10.234-1.343-2.75-3.173-4.126-5.492-4.126zm3.253 23.324c-.813 2.468-1.958 3.702-3.424 3.702-1.263 0-2.298-1.226-3.1-3.68-.804-2.451-1.207-5.462-1.207-9.03 0-3.596.426-6.6 1.275-9.008.849-2.41 1.973-3.613 3.375-3.613 1.262 0 2.295 1.181 3.099 3.546.804 2.363 1.204 5.314 1.204 8.852 0 3.688-.405 6.765-1.222 9.231zm5.004 3.925c0 .208.039.483.119.825.08.343.168.513.26.513H340.2c.414 0 .642-.238.69-.714.067-.595.378-2.675.928-6.243-.115-.119-.322-.178-.621-.178-.228 0-.39.163-.482.49-.299 1.338-.589 2.246-.876 2.72-.29.477-.754.715-1.395.715h-6.646c-.115-.06-.139-.164-.07-.314a88.93 88.93 0 0 0 1.602-2.05c.331-.446.935-1.264 1.807-2.454.873-1.189 1.556-2.236 2.05-3.144.494-.906 1.044-1.97 1.653-3.188.606-1.218 1.056-2.415 1.343-3.59a14.36 14.36 0 0 0 .431-3.412c0-1.873-.443-3.551-1.328-5.04-.884-1.485-2.093-2.229-3.631-2.229a5.21 5.21 0 0 0-2.739.78c-.86.521-1.55 1.145-2.064 1.873a16.39 16.39 0 0 0-1.242 2.008c-.308.61-.5 1.091-.568 1.45 0 .088.074.23.225.422.147.194.292.29.428.29 1.15-2.467 2.677-3.701 4.582-3.701 1.011 0 1.824.439 2.445 1.316.618.877.929 2.117.929 3.723 0 2.438-.896 5.418-2.685 8.942a66.013 66.013 0 0 1-6.439 10.19zm70.467-99.627c.574-3.555 1.28-5.856 2.12-6.904.844-1.047 2.432-1.57 4.771-1.57 4.102 0 6.317.476 6.646 1.428.37 1.016.553 4.285.553 9.807v34.47c0 3.937-.145 6.761-.432 8.475-.121.509-.707.952-1.751 1.332-1.047.382-1.837.573-2.369.573-.166 0-.248.445-.248 1.332 0 .7.082 1.174.248 1.428 4.714-.316 7.178-.476 7.382-.476.656 0 3.034.16 7.14.476.079-.38.12-.823.12-1.332 0-.952-.082-1.428-.245-1.428-.411 0-1.15-.206-2.215-.62-1.068-.411-1.642-.84-1.724-1.285-.367-2.221-.553-5.173-.553-8.856V69.78c0-4.316.186-7.49.553-9.521.165-.952 2.422-1.428 6.77-1.428 2.339 0 3.927.523 4.767 1.57.842 1.048 1.55 3.35 2.123 6.904.041.318.245.476.615.476.698 0 1.189-.222 1.479-.667l-1.171-13.616c-1.804.7-3.22 1.047-4.244 1.047-1.562 0-3.753.064-6.583.19-2.834.128-5.15.192-6.953.192-1.807 0-4.114-.064-6.924-.191s-4.995-.19-6.554-.19c-1.026 0-2.44-.348-4.243-1.048L396.9 67.114c.287.445.781.667 1.48.667.366 0 .573-.158.614-.476zm73.759-8.19c.083-.443.657-.888 1.724-1.331 1.065-.444 1.804-.667 2.212-.667.166 0 .249-.444.249-1.334 0-.57-.042-1.047-.124-1.429-.574.065-1.302.144-2.183.239a86.97 86.97 0 0 1-2.493.238 28.12 28.12 0 0 1-2.34.096c-1.106 0-2.502-.08-4.181-.238-1.683-.159-2.771-.27-3.262-.335-.166.255-.246.78-.246 1.572 0 .794.08 1.19.246 1.19.532 0 1.322.208 2.369.619 1.046.414 1.63.874 1.753 1.38.287 1.715.432 4.54.432 8.475v14.474a.695.695 0 0 1-.124.382c-3.691.127-6.728.189-9.106.189-2.215 0-5.332-.062-9.355-.19l-.12-.286V67.972c0-3.682.183-6.634.552-8.856.083-.444.657-.889 1.724-1.332 1.065-.444 1.804-.667 2.216-.667.12 0 .192-.397.213-1.19.02-.793-.01-1.318-.092-1.573-.574.065-1.313.144-2.215.239-.902.096-1.745.175-2.523.238-.78.065-1.58.096-2.398.096-1.11 0-2.485-.08-4.123-.238-1.642-.159-2.73-.27-3.262-.335-.166.255-.246.763-.246 1.525 0 .825.08 1.238.246 1.238.532 0 1.322.207 2.369.618 1.047.414 1.63.874 1.753 1.38.287 1.715.432 4.54.432 8.475v36.946c0 3.937-.145 6.761-.432 8.475-.124.509-.706.952-1.753 1.332-1.047.382-1.837.573-2.37.573-.165 0-.245.445-.245 1.332 0 .7.08 1.174.246 1.428 4.717-.316 7.177-.476 7.385-.476.653 0 3.034.16 7.136.476.083-.316.112-.856.092-1.619-.021-.761-.092-1.141-.213-1.141-.412 0-1.15-.206-2.216-.62-1.067-.411-1.64-.84-1.724-1.285-.37-2.221-.553-5.173-.553-8.856V87.682c0-.317 3.159-.476 9.476-.476 2.215 0 5.25.063 9.106.19l.124.382v16.758c0 3.937-.145 6.761-.432 8.475-.124.509-.707.952-1.753 1.332-1.047.382-1.837.573-2.37.573-.165 0-.245.396-.245 1.19s.08 1.316.246 1.57c4.717-.316 7.198-.476 7.443-.476.574 0 2.914.16 7.016.476.082-.38.124-.823.124-1.332 0-.952-.083-1.428-.249-1.428-.408 0-1.147-.206-2.212-.62-1.067-.411-1.641-.84-1.724-1.285-.328-1.967-.491-4.918-.491-8.856V67.972c0-3.936.163-6.888.491-8.856zm22.938 58.561c.083-.38.121-.823.121-1.332 0-.952-.08-1.428-.245-1.428-.411 0-1.148-.206-2.215-.62-1.068-.411-1.642-.84-1.722-1.285-.37-2.221-.556-5.173-.556-8.856V67.972c0-3.682.187-6.634.556-8.856.08-.444.654-.889 1.722-1.332 1.067-.444 1.804-.667 2.215-.667.165 0 .245-.444.245-1.334 0-.57-.038-1.047-.121-1.429-4.102.32-6.483.477-7.14.477-.203 0-2.664-.157-7.381-.477-.166.255-.246.763-.246 1.525 0 .825.08 1.238.246 1.238.532 0 1.322.207 2.369.618 1.047.414 1.63.874 1.754 1.38.286 1.715.428 4.54.428 8.475v36.946c0 3.937-.142 6.761-.428 8.475-.125.509-.707.952-1.754 1.332-1.047.382-1.837.573-2.37.573-.165 0-.245.445-.245 1.332 0 .7.08 1.174.246 1.428 4.717-.316 7.178-.476 7.382-.476.656 0 3.037.16 7.139.476zm6.29-59.512c1.089.445 1.695.92 1.816 1.428.287 1.714.432 4.444.432 8.19v35.993c0 5.205-.145 8.189-.432 8.95-.204.571-.83 1.08-1.875 1.524-1.047.445-1.836.667-2.369.667-.124 0-.186.412-.186 1.237s.062 1.333.186 1.523l7.444-.285c2.872 0 6.563.062 11.076.19 4.513.126 7.813.191 9.907.191.08-.952.266-2.157.553-3.618.287-1.46.553-2.746.799-3.857.248-1.11.585-2.571 1.017-4.38.429-1.81.748-3.126.953-3.952-.246-.38-.76-.57-1.538-.57-.491 0-.781.19-.861.57-.452 2.413-1.059 4.492-1.816 6.237-.76 1.746-1.446 2.873-2.061 3.38-1.355 1.08-3.94 1.62-7.752 1.62h-2.954c-2.668 0-4.06-.318-4.185-.953-.37-1.65-.553-4.538-.553-8.665v-14.76c0-.57 1.476-.857 4.43-.857 3.815 0 5.99.255 6.521.763.246.255.42.46.524.618.1.16.257.667.461 1.523.204.858.453 2.143.74 3.857.12.509.45.762.984.762.491 0 .82-.126.985-.38V77.112c-.207-.316-.556-.475-1.047-.475-.576 0-.884.222-.922.666-.246 1.46-.39 2.366-.432 2.713-.042.35-.195.905-.461 1.667-.267.763-.483 1.175-.645 1.237-.166.065-.536.224-1.11.477-.573.255-1.117.381-1.629.381h-5.755c-1.763 0-2.644-.19-2.644-.57V67.971c0-3.81.1-6.475.308-7.998.08-.826 1.886-1.24 5.415-1.24h4.122c1.926 0 3.446.494 4.552 1.478 1.109.984 1.97 3.222 2.585 6.712.041.445.328.666.86.666s.902-.158 1.11-.476c-.083-.761-.361-2.65-.832-5.665-.473-3.015-.79-5.443-.952-7.284-2.298 0-5.723.127-10.277.38-4.555.255-7.752.382-9.6.382-2.747 0-5.187-.064-7.32-.191-.165.254-.248.794-.248 1.62 0 .76.083 1.14.248 1.14.533 0 1.343.224 2.428.668zm61.489 46.658c-2.668-4.507-5.028-10.094-7.078-16.759-.165-.381-.04-.698.37-.952 2.215-1.587 3.969-3.84 5.261-6.76 1.29-2.92 1.938-5.714 1.938-8.38 0-3.11-.453-5.84-1.355-8.19-.902-2.346-2.05-4.156-3.445-5.427-1.396-1.268-2.81-2.22-4.244-2.857-1.438-.634-2.854-.952-4.247-.952-1.19 0-2.626.064-4.306.19-1.683.128-3.138.192-4.371.192l-7.382-.191c-.166.254-.246.794-.246 1.62 0 .76.08 1.14.246 1.14.532 0 1.343.224 2.43.668 1.086.445 1.693.92 1.814 1.428.287 1.714.432 4.444.432 8.19v35.993c0 5.205-.145 8.189-.432 8.95-.204.571-.82 1.047-1.846 1.429-1.026.38-1.824.57-2.398.57-.124 0-.186.415-.186 1.238 0 .953.062 1.524.186 1.714l7.506-.476c1.23 0 3.898.16 8 .476.08-.38.121-.856.121-1.428 0-.887-.083-1.332-.245-1.332-.533 0-1.426-.253-2.677-.762-1.25-.507-1.978-1.174-2.183-2-.33-1.27-.493-4.03-.493-8.285V89.872c0-.507.082-.887.245-1.142.166-.254.328-.396.494-.429a4.25 4.25 0 0 1 .736-.047c1.068 0 1.825.127 2.278.38.452.318.872.73 1.262 1.238.388.509.84 1.27 1.352 2.286a76.088 76.088 0 0 1 1.354 2.808c.39.858 1.006 2.255 1.846 4.19.84 1.938 1.591 3.604 2.248 4.999 4.223 9.141 9.206 13.712 14.95 13.712.656 0 1.21-.095 1.662-.285.124-.382.186-.858.186-1.429 0-.507-.062-.952-.186-1.334-2.461 0-5.661-3.331-9.597-9.997zM551.53 84.16h-1.537c-3.57 0-5.353-.92-5.353-2.763v-11.52c0-3.11.03-5.413.091-6.905.062-1.49.145-2.442.249-2.856.1-.413.233-.65.399-.715 1.023-.443 2.46-.667 4.306-.667 5.743 0 8.615 4.414 8.615 13.236 0 3.682-.769 6.635-2.307 8.857-1.538 2.222-3.025 3.333-4.463 3.333zm47.887 12.33c-.39-1.428-.801-2.618-1.23-3.57-.432-.953-1.13-2.049-2.094-3.286s-1.67-2.094-2.123-2.57c-.45-.476-1.29-1.302-2.523-2.477-1.23-1.173-1.946-1.856-2.153-2.047-.287-.253-.952-.888-2-1.904-1.046-1.015-1.744-1.714-2.09-2.096-.35-.38-.905-1.047-1.662-1.999-.76-.952-1.284-1.792-1.57-2.523-.287-.729-.574-1.65-.861-2.762a13.828 13.828 0 0 1-.43-3.475c0-2.793.5-5.141 1.506-7.046 1.006-1.904 2.739-2.857 5.2-2.857 2.215 0 4.093 1.318 5.63 3.951 1.538 2.635 2.41 5.349 2.615 8.142.083.636.615.953 1.6.953.41 0 .615-.222.615-.667 0-5.713-.245-10.25-.736-13.616a37.35 37.35 0 0 1-2.556-1c-.964-.413-1.703-.714-2.215-.905s-1.168-.365-1.97-.524a13.126 13.126 0 0 0-2.552-.238c-3.2 0-6.01 1.57-8.428 4.713-2.423 3.142-3.632 7.159-3.632 12.046 0 1.523.133 2.984.4 4.38a13.972 13.972 0 0 0 1.383 3.952 112.909 112.909 0 0 0 1.724 3.143c.491.856 1.28 1.84 2.37 2.951 1.085 1.11 1.865 1.89 2.339 2.332a194.5 194.5 0 0 0 2.49 2.286c.37.318 1.047.89 2.032 1.714.984.825 1.662 1.429 2.028 1.809.37.381.893.968 1.57 1.762.678.794 1.148 1.54 1.414 2.237.27.7.524 1.587.772 2.667.246 1.08.367 2.253.367 3.523 0 3.492-.716 6.189-2.153 8.093s-3.18 2.857-5.229 2.857c-5.415 0-8.822-4.57-10.215-13.712-.287-.57-.798-.856-1.538-.856-.656 0-.984.19-.984.57 0 2.285.511 7.332 1.537 15.141.453.128 1.242.397 2.37.81 1.126.413 2.06.73 2.8.952.736.221 1.662.443 2.768.666 1.11.22 2.153.333 3.138.333 3.445 0 6.45-1.634 9.014-4.903 2.564-3.27 3.845-7.443 3.845-12.522 0-1.523-.195-3-.583-4.427z" fill="#a73f02"/></svg>